<?xml version="1.0" encoding="utf-8" ?>
<svg baseProfile="full" height="1140.0119999999997" version="1.1" width="480" xmlns="http://www.w3.org/2000/svg" xmlns:ev="http://www.w3.org/2001/xml-events" xmlns:xlink="http://www.w3.org/1999/xlink"><defs><marker id="arrow" markerHeight="3.5" markerWidth="5" orient="auto" refX="5.0" refY="1.7"><polygon points="0,0 5,1.75 0,3.5" /></marker></defs><g style="fill:white;"><g transform="matrix(1.0, 0.0, 0.0, 1.0, 240.0, 569.9988750140624)"><g transform="matrix(47.618452388392775, 0.0, 0.0, 47.618452388392775, 0.0, 0.0)"><g><g transform="matrix(1.0, 0.0, 0.0, 1.0, -0.0, -8.881784197001252e-16)"><g><g style="fill: #ffffff;stroke: black;stroke-width: 1.5;" transform="matrix(1.0, 0.0, 0.0, 1.0, 0.0, 0.0)"><rect height="22.800239999999995" style="vector-effect: non-scaling-stroke;" width="9.600119999999999" x="-4.800059999999999" y="-11.400119999999998" /></g><g transform="matrix(1.0, 0.0, 0.0, 1.0, -0.0, -10.800119999999998)"><g><g><g><g><g style="stroke: black;stroke-width: 1.5;" transform="matrix(1.0, 0.0, 0.0, 1.0, 0.0, 0.0)"><g /></g><g transform="matrix(1.0, 0.0, 0.0, 1.0, 0.0, 0.5)"><g style="fill: #000000;stroke: black;stroke-width: 0.0;" transform="matrix(1.0, 0.0, 0.0, 1.0, 0.0, 0.0)"><text style="text-align:center; text-anchor:middle; dominant-baseline:middle;&#10;                      font-family:sans-serif; font-weight: bold;&#10;                      font-size:0.75px;&#10;                      vector-effect: non-scaling-stroke;" transform="translate(-5e-05, 0)">broadcast</text></g></g></g><g transform="matrix(1.0, 0.0, 0.0, 1.0, 0.0, 1.0001)"><g style="stroke: black;stroke-width: 1.5;" transform="matrix(1.0, 0.0, 0.0, 1.0, 0.0, 0.0)"><g /></g></g></g><g transform="matrix(1.0, 0.0, 0.0, 1.0, 0.0, 10.00015)"><g transform="matrix(1.0, 0.0, 0.0, 1.0, -4.0, -8.0)"><g><g><g><g><g><g><g><g><g><g><g><g transform="matrix(1.0, 0.0, 0.0, 1.0, -0.0, -0.0)"><g style="stroke: black;stroke-width: 1.5;" transform="matrix(1.0, 0.0, 0.0, 1.0, 0.0, 0.0)"><g /></g></g><g /></g><g transform="matrix(1.0, 0.0, 0.0, 1.0, 0.50005, 0.0)"><g style="stroke: black;stroke-width: 1.5;" transform="matrix(1.0, 0.0, 0.0, 1.0, 0.0, 0.0)"><g /></g></g></g><g transform="matrix(1.0, 0.0, 0.0, 1.0, 3.00005, 0.0)"><g><g transform="matrix(1.0, 0.0, 0.0, 1.0, -5e-05, -0.25005)"><g><g><g style="stroke: black;stroke-width: 1.5;" transform="matrix(1.0, 0.0, 0.0, 1.0, 0.0, 0.0)"><g /></g><g transform="matrix(1.0, 0.0, 0.0, 1.0, 0.0, 0.25)"><g style="fill: #000000;stroke: black;stroke-width: 0.0;" transform="matrix(1.0, 0.0, 0.0, 1.0, 0.0, 0.0)"><text style="text-align:center; text-anchor:middle; dominant-baseline:middle;&#10;                      font-family:sans-serif; font-weight: bold;&#10;                      font-size:0.5px;&#10;                      vector-effect: non-scaling-stroke;" transform="translate(-5e-05, 0)">Ex. 0</text></g></g></g><g transform="matrix(1.0, 0.0, 0.0, 1.0, 0.0, 0.5001)"><g style="stroke: black;stroke-width: 1.5;" transform="matrix(1.0, 0.0, 0.0, 1.0, 0.0, 0.0)"><g /></g></g></g></g><g /></g></g></g><g transform="matrix(1.0, 0.0, 0.0, 1.0, 5.50005, 0.0)"><g style="stroke: black;stroke-width: 1.5;" transform="matrix(1.0, 0.0, 0.0, 1.0, 0.0, 0.0)"><g /></g></g></g><g transform="matrix(1.0, 0.0, 0.0, 1.0, 7.00005, 0.0)"><g><g transform="matrix(1.0, 0.0, 0.0, 1.0, -5e-05, -0.25005)"><g><g><g style="stroke: black;stroke-width: 1.5;" transform="matrix(1.0, 0.0, 0.0, 1.0, 0.0, 0.0)"><g /></g><g transform="matrix(1.0, 0.0, 0.0, 1.0, 0.0, 0.25)"><g style="fill: #000000;stroke: black;stroke-width: 0.0;" transform="matrix(1.0, 0.0, 0.0, 1.0, 0.0, 0.0)"><text style="text-align:center; text-anchor:middle; dominant-baseline:middle;&#10;                      font-family:sans-serif; font-weight: bold;&#10;                      font-size:0.5px;&#10;                      vector-effect: non-scaling-stroke;" transform="translate(-5e-05, 0)">Ex. 1</text></g></g></g><g transform="matrix(1.0, 0.0, 0.0, 1.0, 0.0, 0.5001)"><g style="stroke: black;stroke-width: 1.5;" transform="matrix(1.0, 0.0, 0.0, 1.0, 0.0, 0.0)"><g /></g></g></g></g><g /></g></g></g><g transform="matrix(1.0, 0.0, 0.0, 1.0, 0.0, 1.0000499999999999)"><g style="stroke: black;stroke-width: 1.5;" transform="matrix(0.0, -1.0, 1.0, 0.0, 0.0, 0.0)"><g /></g></g></g><g transform="matrix(1.0, 0.0, 0.0, 1.0, 0.0, 3.00005)"><g><g><g><g><g><g transform="matrix(1.0, 0.0, 0.0, 1.0, -5e-05, -0.25005)"><g><g><g style="stroke: black;stroke-width: 1.5;" transform="matrix(1.0, 0.0, 0.0, 1.0, 0.0, 0.0)"><g /></g><g transform="matrix(1.0, 0.0, 0.0, 1.0, 0.0, 0.25)"><g style="fill: #000000;stroke: black;stroke-width: 0.0;" transform="matrix(1.0, 0.0, 0.0, 1.0, 0.0, 0.0)"><text style="text-align:center; text-anchor:middle; dominant-baseline:middle;&#10;                      font-family:sans-serif; font-weight: bold;&#10;                      font-size:0.5px;&#10;                      vector-effect: non-scaling-stroke;" transform="translate(-5e-05, 0)">a</text></g></g></g><g transform="matrix(1.0, 0.0, 0.0, 1.0, 0.0, 0.5001)"><g style="stroke: black;stroke-width: 1.5;" transform="matrix(1.0, 0.0, 0.0, 1.0, 0.0, 0.0)"><g /></g></g></g></g><g /></g><g transform="matrix(1.0, 0.0, 0.0, 1.0, 0.50005, 0.0)"><g style="stroke: black;stroke-width: 1.5;" transform="matrix(1.0, 0.0, 0.0, 1.0, 0.0, 0.0)"><g /></g></g></g><g transform="matrix(1.0, 0.0, 0.0, 1.0, 3.00005, 0.0)"><g><g transform="matrix(1.0, 0.0, 0.0, 1.0, -1.5, -0.0)"><g><g><g><g><g><g><g style="stroke: black;stroke-width: 1.5;" transform="matrix(1.0, 0.0, 0.0, 1.0, 0.0, 0.0)"><rect height="1" style="vector-effect: non-scaling-stroke;" width="1" x="-0.5" y="-0.5" /></g><g transform="matrix(1.0, 0.0, 0.0, 1.0, 0.5, 0.0)"><g transform="matrix(1.0, -0.0, 0.0, 1.0, 0.0, 0.0)"><g /></g></g></g><g transform="matrix(1.0, 0.0, 0.0, 1.0, 1.0, 0.0)"><g style="fill: #ffa500;stroke: black;stroke-width: 1.5;fill-opacity: 0.46;" transform="matrix(1.0, 0.0, 0.0, 1.0, 0.0, 0.0)"><rect height="1" style="vector-effect: non-scaling-stroke;" width="1" x="-0.5" y="-0.5" /></g></g></g><g transform="matrix(1.0, 0.0, 0.0, 1.0, 1.5, 0.0)"><g transform="matrix(1.0, -0.0, 0.0, 1.0, 0.0, 0.0)"><g /></g></g></g><g transform="matrix(1.0, 0.0, 0.0, 1.0, 2.0, 0.0)"><g style="fill: #ffa500;stroke: black;stroke-width: 1.5;fill-opacity: 0.52;" transform="matrix(1.0, 0.0, 0.0, 1.0, 0.0, 0.0)"><rect height="1" style="vector-effect: non-scaling-stroke;" width="1" x="-0.5" y="-0.5" /></g></g></g><g transform="matrix(1.0, 0.0, 0.0, 1.0, 2.5, 0.0)"><g transform="matrix(1.0, -0.0, 0.0, 1.0, 0.0, 0.0)"><g /></g></g></g><g transform="matrix(1.0, 0.0, 0.0, 1.0, 3.0, 0.0)"><g style="fill: #ffa500;stroke: black;stroke-width: 1.5;fill-opacity: 0.5800000000000001;" transform="matrix(1.0, 0.0, 0.0, 1.0, 0.0, 0.0)"><rect height="1" style="vector-effect: non-scaling-stroke;" width="1" x="-0.5" y="-0.5" /></g></g></g></g><g /></g></g></g><g transform="matrix(1.0, 0.0, 0.0, 1.0, 5.50005, 0.0)"><g style="stroke: black;stroke-width: 1.5;" transform="matrix(1.0, 0.0, 0.0, 1.0, 0.0, 0.0)"><g /></g></g></g><g transform="matrix(1.0, 0.0, 0.0, 1.0, 7.00005, 0.0)"><g><g transform="matrix(1.0, 0.0, 0.0, 1.0, -0.0, -1.0)"><g><g><g><g><g style="stroke: black;stroke-width: 1.5;" transform="matrix(1.0, 0.0, 0.0, 1.0, 0.0, 0.0)"><rect height="1" style="vector-effect: non-scaling-stroke;" width="1" x="-0.5" y="-0.5" /></g><g transform="matrix(1.0, 0.0, 0.0, 1.0, 0.0, 0.5)"><g transform="matrix(0.0, -1.0, 1.0, 0.0, 0.0, 0.0)"><g /></g></g></g><g transform="matrix(1.0, 0.0, 0.0, 1.0, 0.0, 1.0)"><g style="fill: #ffa500;stroke: black;stroke-width: 1.5;fill-opacity: 0.46;" transform="matrix(1.0, 0.0, 0.0, 1.0, 0.0, 0.0)"><rect height="1" style="vector-effect: non-scaling-stroke;" width="1" x="-0.5" y="-0.5" /></g></g></g><g transform="matrix(1.0, 0.0, 0.0, 1.0, 0.0, 1.5)"><g transform="matrix(0.0, -1.0, 1.0, 0.0, 0.0, 0.0)"><g /></g></g></g><g transform="matrix(1.0, 0.0, 0.0, 1.0, 0.0, 2.0)"><g style="fill: #ffa500;stroke: black;stroke-width: 1.5;fill-opacity: 0.52;" transform="matrix(1.0, 0.0, 0.0, 1.0, 0.0, 0.0)"><rect height="1" style="vector-effect: non-scaling-stroke;" width="1" x="-0.5" y="-0.5" /></g></g></g></g><g /></g></g></g></g></g><g transform="matrix(1.0, 0.0, 0.0, 1.0, 0.0, 5.00005)"><g style="stroke: black;stroke-width: 1.5;" transform="matrix(0.0, -1.0, 1.0, 0.0, 0.0, 0.0)"><g /></g></g></g><g transform="matrix(1.0, 0.0, 0.0, 1.0, 0.0, 8.00005)"><g><g><g><g><g><g transform="matrix(1.0, 0.0, 0.0, 1.0, -5e-05, -0.25005)"><g><g><g style="stroke: black;stroke-width: 1.5;" transform="matrix(1.0, 0.0, 0.0, 1.0, 0.0, 0.0)"><g /></g><g transform="matrix(1.0, 0.0, 0.0, 1.0, 0.0, 0.25)"><g style="fill: #000000;stroke: black;stroke-width: 0.0;" transform="matrix(1.0, 0.0, 0.0, 1.0, 0.0, 0.0)"><text style="text-align:center; text-anchor:middle; dominant-baseline:middle;&#10;                      font-family:sans-serif; font-weight: bold;&#10;                      font-size:0.5px;&#10;                      vector-effect: non-scaling-stroke;" transform="translate(-5e-05, 0)">b</text></g></g></g><g transform="matrix(1.0, 0.0, 0.0, 1.0, 0.0, 0.5001)"><g style="stroke: black;stroke-width: 1.5;" transform="matrix(1.0, 0.0, 0.0, 1.0, 0.0, 0.0)"><g /></g></g></g></g><g /></g><g transform="matrix(1.0, 0.0, 0.0, 1.0, 0.50005, 0.0)"><g style="stroke: black;stroke-width: 1.5;" transform="matrix(1.0, 0.0, 0.0, 1.0, 0.0, 0.0)"><g /></g></g></g><g transform="matrix(1.0, 0.0, 0.0, 1.0, 3.00005, 0.0)"><g><g transform="matrix(1.0, 0.0, 0.0, 1.0, -0.0, -2.0)"><g><g><g><g><g><g><g><g><g style="stroke: black;stroke-width: 1.5;" transform="matrix(1.0, 0.0, 0.0, 1.0, 0.0, 0.0)"><rect height="1" style="vector-effect: non-scaling-stroke;" width="1" x="-0.5" y="-0.5" /></g><g transform="matrix(1.0, 0.0, 0.0, 1.0, 0.0, 0.5)"><g transform="matrix(0.0, -1.0, 1.0, 0.0, 0.0, 0.0)"><g /></g></g></g><g transform="matrix(1.0, 0.0, 0.0, 1.0, 0.0, 1.0)"><g style="fill: #ffa500;stroke: black;stroke-width: 1.5;fill-opacity: 0.46;" transform="matrix(1.0, 0.0, 0.0, 1.0, 0.0, 0.0)"><rect height="1" style="vector-effect: non-scaling-stroke;" width="1" x="-0.5" y="-0.5" /></g></g></g><g transform="matrix(1.0, 0.0, 0.0, 1.0, 0.0, 1.5)"><g transform="matrix(0.0, -1.0, 1.0, 0.0, 0.0, 0.0)"><g /></g></g></g><g transform="matrix(1.0, 0.0, 0.0, 1.0, 0.0, 2.0)"><g style="fill: #ffa500;stroke: black;stroke-width: 1.5;fill-opacity: 0.52;" transform="matrix(1.0, 0.0, 0.0, 1.0, 0.0, 0.0)"><rect height="1" style="vector-effect: non-scaling-stroke;" width="1" x="-0.5" y="-0.5" /></g></g></g><g transform="matrix(1.0, 0.0, 0.0, 1.0, 0.0, 2.5)"><g transform="matrix(0.0, -1.0, 1.0, 0.0, 0.0, 0.0)"><g /></g></g></g><g transform="matrix(1.0, 0.0, 0.0, 1.0, 0.0, 3.0)"><g style="fill: #ffa500;stroke: black;stroke-width: 1.5;fill-opacity: 0.5800000000000001;" transform="matrix(1.0, 0.0, 0.0, 1.0, 0.0, 0.0)"><rect height="1" style="vector-effect: non-scaling-stroke;" width="1" x="-0.5" y="-0.5" /></g></g></g><g transform="matrix(1.0, 0.0, 0.0, 1.0, 0.0, 3.5)"><g transform="matrix(0.0, -1.0, 1.0, 0.0, 0.0, 0.0)"><g /></g></g></g><g transform="matrix(1.0, 0.0, 0.0, 1.0, 0.0, 4.0)"><g style="fill: #ffa500;stroke: black;stroke-width: 1.5;fill-opacity: 0.64;" transform="matrix(1.0, 0.0, 0.0, 1.0, 0.0, 0.0)"><rect height="1" style="vector-effect: non-scaling-stroke;" width="1" x="-0.5" y="-0.5" /></g></g></g></g><g /></g></g></g><g transform="matrix(1.0, 0.0, 0.0, 1.0, 5.50005, 0.0)"><g style="stroke: black;stroke-width: 1.5;" transform="matrix(1.0, 0.0, 0.0, 1.0, 0.0, 0.0)"><g /></g></g></g><g transform="matrix(1.0, 0.0, 0.0, 1.0, 7.00005, 0.0)"><g><g transform="matrix(1.0, 0.0, 0.0, 1.0, -0.5, -0.0)"><g><g><g style="stroke: black;stroke-width: 1.5;" transform="matrix(1.0, 0.0, 0.0, 1.0, 0.0, 0.0)"><rect height="1" style="vector-effect: non-scaling-stroke;" width="1" x="-0.5" y="-0.5" /></g><g transform="matrix(1.0, 0.0, 0.0, 1.0, 0.5, 0.0)"><g transform="matrix(1.0, -0.0, 0.0, 1.0, 0.0, 0.0)"><g /></g></g></g><g transform="matrix(1.0, 0.0, 0.0, 1.0, 1.0, 0.0)"><g style="fill: #ffa500;stroke: black;stroke-width: 1.5;fill-opacity: 0.46;" transform="matrix(1.0, 0.0, 0.0, 1.0, 0.0, 0.0)"><rect height="1" style="vector-effect: non-scaling-stroke;" width="1" x="-0.5" y="-0.5" /></g></g></g></g><g /></g></g></g></g></g><g transform="matrix(1.0, 0.0, 0.0, 1.0, 0.0, 11.00005)"><g style="stroke: black;stroke-width: 1.5;" transform="matrix(0.0, -1.0, 1.0, 0.0, 0.0, 0.0)"><g /></g></g></g><g transform="matrix(1.0, 0.0, 0.0, 1.0, 0.0, 14.00005)"><g><g><g><g><g><g transform="matrix(1.0, 0.0, 0.0, 1.0, -5e-05, -0.25005)"><g><g><g style="stroke: black;stroke-width: 1.5;" transform="matrix(1.0, 0.0, 0.0, 1.0, 0.0, 0.0)"><g /></g><g transform="matrix(1.0, 0.0, 0.0, 1.0, 0.0, 0.25)"><g style="fill: #000000;stroke: black;stroke-width: 0.0;" transform="matrix(1.0, 0.0, 0.0, 1.0, 0.0, 0.0)"><text style="text-align:center; text-anchor:middle; dominant-baseline:middle;&#10;                      font-family:sans-serif; font-weight: bold;&#10;                      font-size:0.5px;&#10;                      vector-effect: non-scaling-stroke;" transform="translate(-5e-05, 0)">ret</text></g></g></g><g transform="matrix(1.0, 0.0, 0.0, 1.0, 0.0, 0.5001)"><g style="stroke: black;stroke-width: 1.5;" transform="matrix(1.0, 0.0, 0.0, 1.0, 0.0, 0.0)"><g /></g></g></g></g><g /></g><g transform="matrix(1.0, 0.0, 0.0, 1.0, 0.50005, 0.0)"><g style="stroke: black;stroke-width: 1.5;" transform="matrix(1.0, 0.0, 0.0, 1.0, 0.0, 0.0)"><g /></g></g></g><g transform="matrix(1.0, 0.0, 0.0, 1.0, 3.00005, 0.0)"><g><g transform="matrix(1.0, 0.0, 0.0, 1.0, -1.5, -2.0)"><g><g><g><g><g><g><g><g><g><g><g><g><g><g><g style="stroke: black;stroke-width: 1.5;" transform="matrix(1.0, 0.0, 0.0, 1.0, 0.0, 0.0)"><rect height="1" style="vector-effect: non-scaling-stroke;" width="1" x="-0.5" y="-0.5" /></g><g transform="matrix(1.0, 0.0, 0.0, 1.0, 0.5, 0.0)"><g transform="matrix(1.0, -0.0, 0.0, 1.0, 0.0, 0.0)"><g /></g></g></g><g transform="matrix(1.0, 0.0, 0.0, 1.0, 1.0, 0.0)"><g style="fill: #ffa500;stroke: black;stroke-width: 1.5;fill-opacity: 0.46;" transform="matrix(1.0, 0.0, 0.0, 1.0, 0.0, 0.0)"><rect height="1" style="vector-effect: non-scaling-stroke;" width="1" x="-0.5" y="-0.5" /></g></g></g><g transform="matrix(1.0, 0.0, 0.0, 1.0, 1.5, 0.0)"><g transform="matrix(1.0, -0.0, 0.0, 1.0, 0.0, 0.0)"><g /></g></g></g><g transform="matrix(1.0, 0.0, 0.0, 1.0, 2.0, 0.0)"><g style="fill: #ffa500;stroke: black;stroke-width: 1.5;fill-opacity: 0.52;" transform="matrix(1.0, 0.0, 0.0, 1.0, 0.0, 0.0)"><rect height="1" style="vector-effect: non-scaling-stroke;" width="1" x="-0.5" y="-0.5" /></g></g></g><g transform="matrix(1.0, 0.0, 0.0, 1.0, 2.5, 0.0)"><g transform="matrix(1.0, -0.0, 0.0, 1.0, 0.0, 0.0)"><g /></g></g></g><g transform="matrix(1.0, 0.0, 0.0, 1.0, 3.0, 0.0)"><g style="fill: #ffa500;stroke: black;stroke-width: 1.5;fill-opacity: 0.5800000000000001;" transform="matrix(1.0, 0.0, 0.0, 1.0, 0.0, 0.0)"><rect height="1" style="vector-effect: non-scaling-stroke;" width="1" x="-0.5" y="-0.5" /></g></g></g><g transform="matrix(1.0, 0.0, 0.0, 1.0, 0.0, 0.5)"><g transform="matrix(0.0, -1.0, 1.0, 0.0, 0.0, 0.0)"><g /></g></g></g><g transform="matrix(1.0, 0.0, 0.0, 1.0, 0.0, 1.0)"><g><g><g><g><g><g><g style="fill: #ffa500;stroke: black;stroke-width: 1.5;fill-opacity: 0.46;" transform="matrix(1.0, 0.0, 0.0, 1.0, 0.0, 0.0)"><rect height="1" style="vector-effect: non-scaling-stroke;" width="1" x="-0.5" y="-0.5" /></g><g transform="matrix(1.0, 0.0, 0.0, 1.0, 0.5, 0.0)"><g transform="matrix(1.0, -0.0, 0.0, 1.0, 0.0, 0.0)"><g /></g></g></g><g transform="matrix(1.0, 0.0, 0.0, 1.0, 1.0, 0.0)"><g style="fill: #ffa500;stroke: black;stroke-width: 1.5;fill-opacity: 0.52;" transform="matrix(1.0, 0.0, 0.0, 1.0, 0.0, 0.0)"><rect height="1" style="vector-effect: non-scaling-stroke;" width="1" x="-0.5" y="-0.5" /></g></g></g><g transform="matrix(1.0, 0.0, 0.0, 1.0, 1.5, 0.0)"><g transform="matrix(1.0, -0.0, 0.0, 1.0, 0.0, 0.0)"><g /></g></g></g><g transform="matrix(1.0, 0.0, 0.0, 1.0, 2.0, 0.0)"><g style="fill: #ffa500;stroke: black;stroke-width: 1.5;fill-opacity: 0.5800000000000001;" transform="matrix(1.0, 0.0, 0.0, 1.0, 0.0, 0.0)"><rect height="1" style="vector-effect: non-scaling-stroke;" width="1" x="-0.5" y="-0.5" /></g></g></g><g transform="matrix(1.0, 0.0, 0.0, 1.0, 2.5, 0.0)"><g transform="matrix(1.0, -0.0, 0.0, 1.0, 0.0, 0.0)"><g /></g></g></g><g transform="matrix(1.0, 0.0, 0.0, 1.0, 3.0, 0.0)"><g style="fill: #ffa500;stroke: black;stroke-width: 1.5;fill-opacity: 0.64;" transform="matrix(1.0, 0.0, 0.0, 1.0, 0.0, 0.0)"><rect height="1" style="vector-effect: non-scaling-stroke;" width="1" x="-0.5" y="-0.5" /></g></g></g></g></g><g transform="matrix(1.0, 0.0, 0.0, 1.0, 0.0, 1.5)"><g transform="matrix(0.0, -1.0, 1.0, 0.0, 0.0, 0.0)"><g /></g></g></g><g transform="matrix(1.0, 0.0, 0.0, 1.0, 0.0, 2.0)"><g><g><g><g><g><g><g style="fill: #ffa500;stroke: black;stroke-width: 1.5;fill-opacity: 0.52;" transform="matrix(1.0, 0.0, 0.0, 1.0, 0.0, 0.0)"><rect height="1" style="vector-effect: non-scaling-stroke;" width="1" x="-0.5" y="-0.5" /></g><g transform="matrix(1.0, 0.0, 0.0, 1.0, 0.5, 0.0)"><g transform="matrix(1.0, -0.0, 0.0, 1.0, 0.0, 0.0)"><g /></g></g></g><g transform="matrix(1.0, 0.0, 0.0, 1.0, 1.0, 0.0)"><g style="fill: #ffa500;stroke: black;stroke-width: 1.5;fill-opacity: 0.5800000000000001;" transform="matrix(1.0, 0.0, 0.0, 1.0, 0.0, 0.0)"><rect height="1" style="vector-effect: non-scaling-stroke;" width="1" x="-0.5" y="-0.5" /></g></g></g><g transform="matrix(1.0, 0.0, 0.0, 1.0, 1.5, 0.0)"><g transform="matrix(1.0, -0.0, 0.0, 1.0, 0.0, 0.0)"><g /></g></g></g><g transform="matrix(1.0, 0.0, 0.0, 1.0, 2.0, 0.0)"><g style="fill: #ffa500;stroke: black;stroke-width: 1.5;fill-opacity: 0.64;" transform="matrix(1.0, 0.0, 0.0, 1.0, 0.0, 0.0)"><rect height="1" style="vector-effect: non-scaling-stroke;" width="1" x="-0.5" y="-0.5" /></g></g></g><g transform="matrix(1.0, 0.0, 0.0, 1.0, 2.5, 0.0)"><g transform="matrix(1.0, -0.0, 0.0, 1.0, 0.0, 0.0)"><g /></g></g></g><g transform="matrix(1.0, 0.0, 0.0, 1.0, 3.0, 0.0)"><g style="fill: #ffa500;stroke: black;stroke-width: 1.5;fill-opacity: 0.7;" transform="matrix(1.0, 0.0, 0.0, 1.0, 0.0, 0.0)"><rect height="1" style="vector-effect: non-scaling-stroke;" width="1" x="-0.5" y="-0.5" /></g></g></g></g></g><g transform="matrix(1.0, 0.0, 0.0, 1.0, 0.0, 2.5)"><g transform="matrix(0.0, -1.0, 1.0, 0.0, 0.0, 0.0)"><g /></g></g></g><g transform="matrix(1.0, 0.0, 0.0, 1.0, 0.0, 3.0)"><g><g><g><g><g><g><g style="fill: #ffa500;stroke: black;stroke-width: 1.5;fill-opacity: 0.5800000000000001;" transform="matrix(1.0, 0.0, 0.0, 1.0, 0.0, 0.0)"><rect height="1" style="vector-effect: non-scaling-stroke;" width="1" x="-0.5" y="-0.5" /></g><g transform="matrix(1.0, 0.0, 0.0, 1.0, 0.5, 0.0)"><g transform="matrix(1.0, -0.0, 0.0, 1.0, 0.0, 0.0)"><g /></g></g></g><g transform="matrix(1.0, 0.0, 0.0, 1.0, 1.0, 0.0)"><g style="fill: #ffa500;stroke: black;stroke-width: 1.5;fill-opacity: 0.64;" transform="matrix(1.0, 0.0, 0.0, 1.0, 0.0, 0.0)"><rect height="1" style="vector-effect: non-scaling-stroke;" width="1" x="-0.5" y="-0.5" /></g></g></g><g transform="matrix(1.0, 0.0, 0.0, 1.0, 1.5, 0.0)"><g transform="matrix(1.0, -0.0, 0.0, 1.0, 0.0, 0.0)"><g /></g></g></g><g transform="matrix(1.0, 0.0, 0.0, 1.0, 2.0, 0.0)"><g style="fill: #ffa500;stroke: black;stroke-width: 1.5;fill-opacity: 0.7;" transform="matrix(1.0, 0.0, 0.0, 1.0, 0.0, 0.0)"><rect height="1" style="vector-effect: non-scaling-stroke;" width="1" x="-0.5" y="-0.5" /></g></g></g><g transform="matrix(1.0, 0.0, 0.0, 1.0, 2.5, 0.0)"><g transform="matrix(1.0, -0.0, 0.0, 1.0, 0.0, 0.0)"><g /></g></g></g><g transform="matrix(1.0, 0.0, 0.0, 1.0, 3.0, 0.0)"><g style="fill: #ffa500;stroke: black;stroke-width: 1.5;fill-opacity: 0.76;" transform="matrix(1.0, 0.0, 0.0, 1.0, 0.0, 0.0)"><rect height="1" style="vector-effect: non-scaling-stroke;" width="1" x="-0.5" y="-0.5" /></g></g></g></g></g><g transform="matrix(1.0, 0.0, 0.0, 1.0, 0.0, 3.5)"><g transform="matrix(0.0, -1.0, 1.0, 0.0, 0.0, 0.0)"><g /></g></g></g><g transform="matrix(1.0, 0.0, 0.0, 1.0, 0.0, 4.0)"><g><g><g><g><g><g><g style="fill: #ffa500;stroke: black;stroke-width: 1.5;fill-opacity: 0.64;" transform="matrix(1.0, 0.0, 0.0, 1.0, 0.0, 0.0)"><rect height="1" style="vector-effect: non-scaling-stroke;" width="1" x="-0.5" y="-0.5" /></g><g transform="matrix(1.0, 0.0, 0.0, 1.0, 0.5, 0.0)"><g transform="matrix(1.0, -0.0, 0.0, 1.0, 0.0, 0.0)"><g /></g></g></g><g transform="matrix(1.0, 0.0, 0.0, 1.0, 1.0, 0.0)"><g style="fill: #ffa500;stroke: black;stroke-width: 1.5;fill-opacity: 0.7;" transform="matrix(1.0, 0.0, 0.0, 1.0, 0.0, 0.0)"><rect height="1" style="vector-effect: non-scaling-stroke;" width="1" x="-0.5" y="-0.5" /></g></g></g><g transform="matrix(1.0, 0.0, 0.0, 1.0, 1.5, 0.0)"><g transform="matrix(1.0, -0.0, 0.0, 1.0, 0.0, 0.0)"><g /></g></g></g><g transform="matrix(1.0, 0.0, 0.0, 1.0, 2.0, 0.0)"><g style="fill: #ffa500;stroke: black;stroke-width: 1.5;fill-opacity: 0.76;" transform="matrix(1.0, 0.0, 0.0, 1.0, 0.0, 0.0)"><rect height="1" style="vector-effect: non-scaling-stroke;" width="1" x="-0.5" y="-0.5" /></g></g></g><g transform="matrix(1.0, 0.0, 0.0, 1.0, 2.5, 0.0)"><g transform="matrix(1.0, -0.0, 0.0, 1.0, 0.0, 0.0)"><g /></g></g></g><g transform="matrix(1.0, 0.0, 0.0, 1.0, 3.0, 0.0)"><g style="fill: #ffa500;stroke: black;stroke-width: 1.5;fill-opacity: 0.8200000000000001;" transform="matrix(1.0, 0.0, 0.0, 1.0, 0.0, 0.0)"><rect height="1" style="vector-effect: non-scaling-stroke;" width="1" x="-0.5" y="-0.5" /></g></g></g></g></g></g><g /></g></g></g><g transform="matrix(1.0, 0.0, 0.0, 1.0, 5.50005, 0.0)"><g style="stroke: black;stroke-width: 1.5;" transform="matrix(1.0, 0.0, 0.0, 1.0, 0.0, 0.0)"><g /></g></g></g><g transform="matrix(1.0, 0.0, 0.0, 1.0, 7.00005, 0.0)"><g><g transform="matrix(1.0, 0.0, 0.0, 1.0, -0.5, -1.0)"><g><g><g><g><g><g><g style="stroke: black;stroke-width: 1.5;" transform="matrix(1.0, 0.0, 0.0, 1.0, 0.0, 0.0)"><rect height="1" style="vector-effect: non-scaling-stroke;" width="1" x="-0.5" y="-0.5" /></g><g transform="matrix(1.0, 0.0, 0.0, 1.0, 0.5, 0.0)"><g transform="matrix(1.0, -0.0, 0.0, 1.0, 0.0, 0.0)"><g /></g></g></g><g transform="matrix(1.0, 0.0, 0.0, 1.0, 1.0, 0.0)"><g style="fill: #ffa500;stroke: black;stroke-width: 1.5;fill-opacity: 0.46;" transform="matrix(1.0, 0.0, 0.0, 1.0, 0.0, 0.0)"><rect height="1" style="vector-effect: non-scaling-stroke;" width="1" x="-0.5" y="-0.5" /></g></g></g><g transform="matrix(1.0, 0.0, 0.0, 1.0, 0.0, 0.5)"><g transform="matrix(0.0, -1.0, 1.0, 0.0, 0.0, 0.0)"><g /></g></g></g><g transform="matrix(1.0, 0.0, 0.0, 1.0, 0.0, 1.0)"><g><g><g style="fill: #ffa500;stroke: black;stroke-width: 1.5;fill-opacity: 0.46;" transform="matrix(1.0, 0.0, 0.0, 1.0, 0.0, 0.0)"><rect height="1" style="vector-effect: non-scaling-stroke;" width="1" x="-0.5" y="-0.5" /></g><g transform="matrix(1.0, 0.0, 0.0, 1.0, 0.5, 0.0)"><g transform="matrix(1.0, -0.0, 0.0, 1.0, 0.0, 0.0)"><g /></g></g></g><g transform="matrix(1.0, 0.0, 0.0, 1.0, 1.0, 0.0)"><g style="fill: #ffa500;stroke: black;stroke-width: 1.5;fill-opacity: 0.52;" transform="matrix(1.0, 0.0, 0.0, 1.0, 0.0, 0.0)"><rect height="1" style="vector-effect: non-scaling-stroke;" width="1" x="-0.5" y="-0.5" /></g></g></g></g></g><g transform="matrix(1.0, 0.0, 0.0, 1.0, 0.0, 1.5)"><g transform="matrix(0.0, -1.0, 1.0, 0.0, 0.0, 0.0)"><g /></g></g></g><g transform="matrix(1.0, 0.0, 0.0, 1.0, 0.0, 2.0)"><g><g><g style="fill: #ffa500;stroke: black;stroke-width: 1.5;fill-opacity: 0.52;" transform="matrix(1.0, 0.0, 0.0, 1.0, 0.0, 0.0)"><rect height="1" style="vector-effect: non-scaling-stroke;" width="1" x="-0.5" y="-0.5" /></g><g transform="matrix(1.0, 0.0, 0.0, 1.0, 0.5, 0.0)"><g transform="matrix(1.0, -0.0, 0.0, 1.0, 0.0, 0.0)"><g /></g></g></g><g transform="matrix(1.0, 0.0, 0.0, 1.0, 1.0, 0.0)"><g style="fill: #ffa500;stroke: black;stroke-width: 1.5;fill-opacity: 0.5800000000000001;" transform="matrix(1.0, 0.0, 0.0, 1.0, 0.0, 0.0)"><rect height="1" style="vector-effect: non-scaling-stroke;" width="1" x="-0.5" y="-0.5" /></g></g></g></g></g></g><g /></g></g></g></g></g></g></g></g><g /></g></g></g></g><g /></g></g></g></g></svg>