<svg xmlns="http://www.w3.org/2000/svg" xmlns:ev="http://www.w3.org/2001/xml-events" xmlns:xlink="http://www.w3.org/1999/xlink" baseProfile="full" height="780.0239999999999" version="1.1" width="780"><defs><marker id="arrow" markerHeight="3.5" markerWidth="5" orient="auto" refX="5.0" refY="1.7"><polygon points="0,0 5,1.75 0,3.5"/></marker></defs><g style="fill:white;"><g transform="matrix(1.0, 0.0, 0.0, 1.0, 390.0, 390.00899993076973)"><g transform="matrix(47.61868132149899, 0.0, 0.0, 47.61868132149899, 0.0, 0.0)"><g><g transform="matrix(1.0, 0.0, 0.0, 1.0, -0.0, -0.0)"><g><g style="fill: #ffffff;stroke: black;stroke-width: 1.5;" transform="matrix(1.0, 0.0, 0.0, 1.0, 0.0, 0.0)"><rect height="15.600479999999997" style="vector-effect: non-scaling-stroke;" width="15.600119999999999" x="-7.800059999999999" y="-7.800239999999999"/></g><g transform="matrix(1.0, 0.0, 0.0, 1.0, -0.0, -7.200239999999999)"><g><g><g><g><g style="stroke: black;stroke-width: 1.5;" transform="matrix(1.0, 0.0, 0.0, 1.0, 0.0, 0.0)"><g/></g><g transform="matrix(1.0, 0.0, 0.0, 1.0, 0.0, 0.5)"><g style="fill: #000000;stroke: black;stroke-width: 0.0;" transform="matrix(1.0, 0.0, 0.0, 1.0, 0.0, 0.0)"><text style="text-align:center; text-anchor:middle; dominant-baseline:middle;
                      font-family:sans-serif; font-weight: bold;
                      font-size:0.75px;
                      vector-effect: non-scaling-stroke;" transform="translate(-5e-05, 0)">repeat</text></g></g></g><g transform="matrix(1.0, 0.0, 0.0, 1.0, 0.0, 1.0001)"><g style="stroke: black;stroke-width: 1.5;" transform="matrix(1.0, 0.0, 0.0, 1.0, 0.0, 0.0)"><g/></g></g></g><g transform="matrix(1.0, 0.0, 0.0, 1.0, 0.0, 7.000249999999999)"><g transform="matrix(1.0, 0.0, 0.0, 1.0, -6.5, -5.0001)"><g><g><g><g><g><g><g><g><g><g><g><g><g><g transform="matrix(1.0, 0.0, 0.0, 1.0, -0.0, -0.0)"><g style="stroke: black;stroke-width: 1.5;" transform="matrix(1.0, 0.0, 0.0, 1.0, 0.0, 0.0)"><g/></g></g><g/></g><g transform="matrix(1.0, 0.0, 0.0, 1.0, 0.50005, 0.0)"><g style="stroke: black;stroke-width: 1.5;" transform="matrix(1.0, 0.0, 0.0, 1.0, 0.0, 0.0)"><g/></g></g></g><g transform="matrix(1.0, 0.0, 0.0, 1.0, 2.50005, 0.0)"><g><g transform="matrix(1.0, 0.0, 0.0, 1.0, -5e-05, -0.25005)"><g><g><g style="stroke: black;stroke-width: 1.5;" transform="matrix(1.0, 0.0, 0.0, 1.0, 0.0, 0.0)"><g/></g><g transform="matrix(1.0, 0.0, 0.0, 1.0, 0.0, 0.25)"><g style="fill: #000000;stroke: black;stroke-width: 0.0;" transform="matrix(1.0, 0.0, 0.0, 1.0, 0.0, 0.0)"><text style="text-align:center; text-anchor:middle; dominant-baseline:middle;
                      font-family:sans-serif; font-weight: bold;
                      font-size:0.5px;
                      vector-effect: non-scaling-stroke;" transform="translate(-5e-05, 0)">Ex. 0</text></g></g></g><g transform="matrix(1.0, 0.0, 0.0, 1.0, 0.0, 0.5001)"><g style="stroke: black;stroke-width: 1.5;" transform="matrix(1.0, 0.0, 0.0, 1.0, 0.0, 0.0)"><g/></g></g></g></g><g/></g></g></g><g transform="matrix(1.0, 0.0, 0.0, 1.0, 4.50005, 0.0)"><g style="stroke: black;stroke-width: 1.5;" transform="matrix(1.0, 0.0, 0.0, 1.0, 0.0, 0.0)"><g/></g></g></g><g transform="matrix(1.0, 0.0, 0.0, 1.0, 6.50005, 0.0)"><g><g transform="matrix(1.0, 0.0, 0.0, 1.0, -5e-05, -0.25005)"><g><g><g style="stroke: black;stroke-width: 1.5;" transform="matrix(1.0, 0.0, 0.0, 1.0, 0.0, 0.0)"><g/></g><g transform="matrix(1.0, 0.0, 0.0, 1.0, 0.0, 0.25)"><g style="fill: #000000;stroke: black;stroke-width: 0.0;" transform="matrix(1.0, 0.0, 0.0, 1.0, 0.0, 0.0)"><text style="text-align:center; text-anchor:middle; dominant-baseline:middle;
                      font-family:sans-serif; font-weight: bold;
                      font-size:0.5px;
                      vector-effect: non-scaling-stroke;" transform="translate(-5e-05, 0)">Ex. 1</text></g></g></g><g transform="matrix(1.0, 0.0, 0.0, 1.0, 0.0, 0.5001)"><g style="stroke: black;stroke-width: 1.5;" transform="matrix(1.0, 0.0, 0.0, 1.0, 0.0, 0.0)"><g/></g></g></g></g><g/></g></g></g><g transform="matrix(1.0, 0.0, 0.0, 1.0, 8.50005, 0.0)"><g style="stroke: black;stroke-width: 1.5;" transform="matrix(1.0, 0.0, 0.0, 1.0, 0.0, 0.0)"><g/></g></g></g><g transform="matrix(1.0, 0.0, 0.0, 1.0, 11.00005, 0.0)"><g><g transform="matrix(1.0, 0.0, 0.0, 1.0, -5e-05, -0.25005)"><g><g><g style="stroke: black;stroke-width: 1.5;" transform="matrix(1.0, 0.0, 0.0, 1.0, 0.0, 0.0)"><g/></g><g transform="matrix(1.0, 0.0, 0.0, 1.0, 0.0, 0.25)"><g style="fill: #000000;stroke: black;stroke-width: 0.0;" transform="matrix(1.0, 0.0, 0.0, 1.0, 0.0, 0.0)"><text style="text-align:center; text-anchor:middle; dominant-baseline:middle;
                      font-family:sans-serif; font-weight: bold;
                      font-size:0.5px;
                      vector-effect: non-scaling-stroke;" transform="translate(-5e-05, 0)">Ex. 2</text></g></g></g><g transform="matrix(1.0, 0.0, 0.0, 1.0, 0.0, 0.5001)"><g style="stroke: black;stroke-width: 1.5;" transform="matrix(1.0, 0.0, 0.0, 1.0, 0.0, 0.0)"><g/></g></g></g></g><g/></g></g></g><g transform="matrix(1.0, 0.0, 0.0, 1.0, 0.0, 1.0000499999999999)"><g style="stroke: black;stroke-width: 1.5;" transform="matrix(0.0, -1.0, 1.0, 0.0, 0.0, 0.0)"><g/></g></g></g><g transform="matrix(1.0, 0.0, 0.0, 1.0, 0.0, 2.0000999999999998)"><g><g><g><g><g><g><g><g transform="matrix(1.0, 0.0, 0.0, 1.0, -5e-05, -0.25005)"><g><g><g style="stroke: black;stroke-width: 1.5;" transform="matrix(1.0, 0.0, 0.0, 1.0, 0.0, 0.0)"><g/></g><g transform="matrix(1.0, 0.0, 0.0, 1.0, 0.0, 0.25)"><g style="fill: #000000;stroke: black;stroke-width: 0.0;" transform="matrix(1.0, 0.0, 0.0, 1.0, 0.0, 0.0)"><text style="text-align:center; text-anchor:middle; dominant-baseline:middle;
                      font-family:sans-serif; font-weight: bold;
                      font-size:0.5px;
                      vector-effect: non-scaling-stroke;" transform="translate(-5e-05, 0)">a</text></g></g></g><g transform="matrix(1.0, 0.0, 0.0, 1.0, 0.0, 0.5001)"><g style="stroke: black;stroke-width: 1.5;" transform="matrix(1.0, 0.0, 0.0, 1.0, 0.0, 0.0)"><g/></g></g></g></g><g/></g><g transform="matrix(1.0, 0.0, 0.0, 1.0, 0.50005, 0.0)"><g style="stroke: black;stroke-width: 1.5;" transform="matrix(1.0, 0.0, 0.0, 1.0, 0.0, 0.0)"><g/></g></g></g><g transform="matrix(1.0, 0.0, 0.0, 1.0, 2.50005, 0.0)"><g><g transform="matrix(1.0, 0.0, 0.0, 1.0, -1.0, -0.0)"><g><g><g><g><g style="fill: #0000ff;stroke: black;stroke-width: 1.5;fill-opacity: 0.46;" transform="matrix(1.0, 0.0, 0.0, 1.0, 0.0, 0.0)"><rect height="1" style="vector-effect: non-scaling-stroke;" width="1" x="-0.5" y="-0.5"/></g><g transform="matrix(1.0, 0.0, 0.0, 1.0, 0.5, 0.0)"><g transform="matrix(1.0, -0.0, 0.0, 1.0, 0.0, 0.0)"><g/></g></g></g><g transform="matrix(1.0, 0.0, 0.0, 1.0, 1.0, 0.0)"><g style="fill: #0000ff;stroke: black;stroke-width: 1.5;fill-opacity: 0.46;" transform="matrix(1.0, 0.0, 0.0, 1.0, 0.0, 0.0)"><rect height="1" style="vector-effect: non-scaling-stroke;" width="1" x="-0.5" y="-0.5"/></g></g></g><g transform="matrix(1.0, 0.0, 0.0, 1.0, 1.5, 0.0)"><g transform="matrix(1.0, -0.0, 0.0, 1.0, 0.0, 0.0)"><g/></g></g></g><g transform="matrix(1.0, 0.0, 0.0, 1.0, 2.0, 0.0)"><g style="fill: #0000ff;stroke: black;stroke-width: 1.5;fill-opacity: 0.46;" transform="matrix(1.0, 0.0, 0.0, 1.0, 0.0, 0.0)"><rect height="1" style="vector-effect: non-scaling-stroke;" width="1" x="-0.5" y="-0.5"/></g></g></g></g><g/></g></g></g><g transform="matrix(1.0, 0.0, 0.0, 1.0, 4.50005, 0.0)"><g style="stroke: black;stroke-width: 1.5;" transform="matrix(1.0, 0.0, 0.0, 1.0, 0.0, 0.0)"><g/></g></g></g><g transform="matrix(1.0, 0.0, 0.0, 1.0, 6.50005, 0.0)"><g><g transform="matrix(1.0, 0.0, 0.0, 1.0, -1.0, -0.0)"><g><g><g><g><g style="fill: #0000ff;stroke: black;stroke-width: 1.5;fill-opacity: 0.7;" transform="matrix(1.0, 0.0, 0.0, 1.0, 0.0, 0.0)"><rect height="1" style="vector-effect: non-scaling-stroke;" width="1" x="-0.5" y="-0.5"/></g><g transform="matrix(1.0, 0.0, 0.0, 1.0, 0.5, 0.0)"><g transform="matrix(1.0, -0.0, 0.0, 1.0, 0.0, 0.0)"><g/></g></g></g><g transform="matrix(1.0, 0.0, 0.0, 1.0, 1.0, 0.0)"><g style="fill: #0000ff;stroke: black;stroke-width: 1.5;fill-opacity: 0.7;" transform="matrix(1.0, 0.0, 0.0, 1.0, 0.0, 0.0)"><rect height="1" style="vector-effect: non-scaling-stroke;" width="1" x="-0.5" y="-0.5"/></g></g></g><g transform="matrix(1.0, 0.0, 0.0, 1.0, 1.5, 0.0)"><g transform="matrix(1.0, -0.0, 0.0, 1.0, 0.0, 0.0)"><g/></g></g></g><g transform="matrix(1.0, 0.0, 0.0, 1.0, 2.0, 0.0)"><g style="fill: #0000ff;stroke: black;stroke-width: 1.5;fill-opacity: 0.7;" transform="matrix(1.0, 0.0, 0.0, 1.0, 0.0, 0.0)"><rect height="1" style="vector-effect: non-scaling-stroke;" width="1" x="-0.5" y="-0.5"/></g></g></g></g><g/></g></g></g><g transform="matrix(1.0, 0.0, 0.0, 1.0, 8.50005, 0.0)"><g style="stroke: black;stroke-width: 1.5;" transform="matrix(1.0, 0.0, 0.0, 1.0, 0.0, 0.0)"><g/></g></g></g><g transform="matrix(1.0, 0.0, 0.0, 1.0, 11.00005, 0.0)"><g><g transform="matrix(1.0, 0.0, 0.0, 1.0, -1.5, -0.0)"><g><g><g><g><g><g><g style="stroke: black;stroke-width: 1.5;" transform="matrix(1.0, 0.0, 0.0, 1.0, 0.0, 0.0)"><rect height="1" style="vector-effect: non-scaling-stroke;" width="1" x="-0.5" y="-0.5"/></g><g transform="matrix(1.0, 0.0, 0.0, 1.0, 0.5, 0.0)"><g transform="matrix(1.0, -0.0, 0.0, 1.0, 0.0, 0.0)"><g/></g></g></g><g transform="matrix(1.0, 0.0, 0.0, 1.0, 1.0, 0.0)"><g style="stroke: black;stroke-width: 1.5;" transform="matrix(1.0, 0.0, 0.0, 1.0, 0.0, 0.0)"><rect height="1" style="vector-effect: non-scaling-stroke;" width="1" x="-0.5" y="-0.5"/></g></g></g><g transform="matrix(1.0, 0.0, 0.0, 1.0, 1.5, 0.0)"><g transform="matrix(1.0, -0.0, 0.0, 1.0, 0.0, 0.0)"><g/></g></g></g><g transform="matrix(1.0, 0.0, 0.0, 1.0, 2.0, 0.0)"><g style="stroke: black;stroke-width: 1.5;" transform="matrix(1.0, 0.0, 0.0, 1.0, 0.0, 0.0)"><rect height="1" style="vector-effect: non-scaling-stroke;" width="1" x="-0.5" y="-0.5"/></g></g></g><g transform="matrix(1.0, 0.0, 0.0, 1.0, 2.5, 0.0)"><g transform="matrix(1.0, -0.0, 0.0, 1.0, 0.0, 0.0)"><g/></g></g></g><g transform="matrix(1.0, 0.0, 0.0, 1.0, 3.0, 0.0)"><g style="stroke: black;stroke-width: 1.5;" transform="matrix(1.0, 0.0, 0.0, 1.0, 0.0, 0.0)"><rect height="1" style="vector-effect: non-scaling-stroke;" width="1" x="-0.5" y="-0.5"/></g></g></g></g><g/></g></g></g></g></g><g transform="matrix(1.0, 0.0, 0.0, 1.0, 0.0, 3.0001499999999997)"><g style="stroke: black;stroke-width: 1.5;" transform="matrix(0.0, -1.0, 1.0, 0.0, 0.0, 0.0)"><g/></g></g></g><g transform="matrix(1.0, 0.0, 0.0, 1.0, 0.0, 4.0001999999999995)"><g><g><g><g><g><g><g><g transform="matrix(1.0, 0.0, 0.0, 1.0, -5e-05, -0.25005)"><g><g><g style="stroke: black;stroke-width: 1.5;" transform="matrix(1.0, 0.0, 0.0, 1.0, 0.0, 0.0)"><g/></g><g transform="matrix(1.0, 0.0, 0.0, 1.0, 0.0, 0.25)"><g style="fill: #000000;stroke: black;stroke-width: 0.0;" transform="matrix(1.0, 0.0, 0.0, 1.0, 0.0, 0.0)"><text style="text-align:center; text-anchor:middle; dominant-baseline:middle;
                      font-family:sans-serif; font-weight: bold;
                      font-size:0.5px;
                      vector-effect: non-scaling-stroke;" transform="translate(-5e-05, 0)">d</text></g></g></g><g transform="matrix(1.0, 0.0, 0.0, 1.0, 0.0, 0.5001)"><g style="stroke: black;stroke-width: 1.5;" transform="matrix(1.0, 0.0, 0.0, 1.0, 0.0, 0.0)"><g/></g></g></g></g><g/></g><g transform="matrix(1.0, 0.0, 0.0, 1.0, 0.50005, 0.0)"><g style="stroke: black;stroke-width: 1.5;" transform="matrix(1.0, 0.0, 0.0, 1.0, 0.0, 0.0)"><g/></g></g></g><g transform="matrix(1.0, 0.0, 0.0, 1.0, 2.50005, 0.0)"><g><g transform="matrix(1.0, 0.0, 0.0, 1.0, -0.0, -0.0)"><g style="fill: #ffa500;stroke: black;stroke-width: 1.5;fill-opacity: 0.64;" transform="matrix(1.0, 0.0, 0.0, 1.0, 0.0, 0.0)"><rect height="1" style="vector-effect: non-scaling-stroke;" width="1" x="-0.5" y="-0.5"/></g></g><g/></g></g></g><g transform="matrix(1.0, 0.0, 0.0, 1.0, 4.50005, 0.0)"><g style="stroke: black;stroke-width: 1.5;" transform="matrix(1.0, 0.0, 0.0, 1.0, 0.0, 0.0)"><g/></g></g></g><g transform="matrix(1.0, 0.0, 0.0, 1.0, 6.50005, 0.0)"><g><g transform="matrix(1.0, 0.0, 0.0, 1.0, -0.0, -0.0)"><g style="fill: #ffa500;stroke: black;stroke-width: 1.5;fill-opacity: 0.64;" transform="matrix(1.0, 0.0, 0.0, 1.0, 0.0, 0.0)"><rect height="1" style="vector-effect: non-scaling-stroke;" width="1" x="-0.5" y="-0.5"/></g></g><g/></g></g></g><g transform="matrix(1.0, 0.0, 0.0, 1.0, 8.50005, 0.0)"><g style="stroke: black;stroke-width: 1.5;" transform="matrix(1.0, 0.0, 0.0, 1.0, 0.0, 0.0)"><g/></g></g></g><g transform="matrix(1.0, 0.0, 0.0, 1.0, 11.00005, 0.0)"><g><g transform="matrix(1.0, 0.0, 0.0, 1.0, -0.0, -0.0)"><g style="fill: #ffa500;stroke: black;stroke-width: 1.5;fill-opacity: 0.7;" transform="matrix(1.0, 0.0, 0.0, 1.0, 0.0, 0.0)"><rect height="1" style="vector-effect: non-scaling-stroke;" width="1" x="-0.5" y="-0.5"/></g></g><g/></g></g></g></g></g><g transform="matrix(1.0, 0.0, 0.0, 1.0, 0.0, 5.000249999999999)"><g style="stroke: black;stroke-width: 1.5;" transform="matrix(0.0, -1.0, 1.0, 0.0, 0.0, 0.0)"><g/></g></g></g><g transform="matrix(1.0, 0.0, 0.0, 1.0, 0.0, 8.00025)"><g><g><g><g><g><g><g><g transform="matrix(1.0, 0.0, 0.0, 1.0, -5e-05, -0.25005)"><g><g><g style="stroke: black;stroke-width: 1.5;" transform="matrix(1.0, 0.0, 0.0, 1.0, 0.0, 0.0)"><g/></g><g transform="matrix(1.0, 0.0, 0.0, 1.0, 0.0, 0.25)"><g style="fill: #000000;stroke: black;stroke-width: 0.0;" transform="matrix(1.0, 0.0, 0.0, 1.0, 0.0, 0.0)"><text style="text-align:center; text-anchor:middle; dominant-baseline:middle;
                      font-family:sans-serif; font-weight: bold;
                      font-size:0.5px;
                      vector-effect: non-scaling-stroke;" transform="translate(-5e-05, 0)">target</text></g></g></g><g transform="matrix(1.0, 0.0, 0.0, 1.0, 0.0, 0.5001)"><g style="stroke: black;stroke-width: 1.5;" transform="matrix(1.0, 0.0, 0.0, 1.0, 0.0, 0.0)"><g/></g></g></g></g><g/></g><g transform="matrix(1.0, 0.0, 0.0, 1.0, 0.50005, 0.0)"><g style="stroke: black;stroke-width: 1.5;" transform="matrix(1.0, 0.0, 0.0, 1.0, 0.0, 0.0)"><g/></g></g></g><g transform="matrix(1.0, 0.0, 0.0, 1.0, 2.50005, 0.0)"><g><g transform="matrix(1.0, 0.0, 0.0, 1.0, -1.0, -1.5)"><g><g><g><g><g><g><g><g><g><g><g style="fill: #0000ff;stroke: black;stroke-width: 1.5;fill-opacity: 0.46;" transform="matrix(1.0, 0.0, 0.0, 1.0, 0.0, 0.0)"><rect height="1" style="vector-effect: non-scaling-stroke;" width="1" x="-0.5" y="-0.5"/></g><g transform="matrix(1.0, 0.0, 0.0, 1.0, 0.5, 0.0)"><g transform="matrix(1.0, -0.0, 0.0, 1.0, 0.0, 0.0)"><g/></g></g></g><g transform="matrix(1.0, 0.0, 0.0, 1.0, 1.0, 0.0)"><g style="fill: #0000ff;stroke: black;stroke-width: 1.5;fill-opacity: 0.46;" transform="matrix(1.0, 0.0, 0.0, 1.0, 0.0, 0.0)"><rect height="1" style="vector-effect: non-scaling-stroke;" width="1" x="-0.5" y="-0.5"/></g></g></g><g transform="matrix(1.0, 0.0, 0.0, 1.0, 1.5, 0.0)"><g transform="matrix(1.0, -0.0, 0.0, 1.0, 0.0, 0.0)"><g/></g></g></g><g transform="matrix(1.0, 0.0, 0.0, 1.0, 2.0, 0.0)"><g style="fill: #0000ff;stroke: black;stroke-width: 1.5;fill-opacity: 0.46;" transform="matrix(1.0, 0.0, 0.0, 1.0, 0.0, 0.0)"><rect height="1" style="vector-effect: non-scaling-stroke;" width="1" x="-0.5" y="-0.5"/></g></g></g><g transform="matrix(1.0, 0.0, 0.0, 1.0, 0.0, 0.5)"><g transform="matrix(0.0, -1.0, 1.0, 0.0, 0.0, 0.0)"><g/></g></g></g><g transform="matrix(1.0, 0.0, 0.0, 1.0, 0.0, 1.0)"><g><g><g><g><g style="fill: #0000ff;stroke: black;stroke-width: 1.5;fill-opacity: 0.46;" transform="matrix(1.0, 0.0, 0.0, 1.0, 0.0, 0.0)"><rect height="1" style="vector-effect: non-scaling-stroke;" width="1" x="-0.5" y="-0.5"/></g><g transform="matrix(1.0, 0.0, 0.0, 1.0, 0.5, 0.0)"><g transform="matrix(1.0, -0.0, 0.0, 1.0, 0.0, 0.0)"><g/></g></g></g><g transform="matrix(1.0, 0.0, 0.0, 1.0, 1.0, 0.0)"><g style="fill: #0000ff;stroke: black;stroke-width: 1.5;fill-opacity: 0.46;" transform="matrix(1.0, 0.0, 0.0, 1.0, 0.0, 0.0)"><rect height="1" style="vector-effect: non-scaling-stroke;" width="1" x="-0.5" y="-0.5"/></g></g></g><g transform="matrix(1.0, 0.0, 0.0, 1.0, 1.5, 0.0)"><g transform="matrix(1.0, -0.0, 0.0, 1.0, 0.0, 0.0)"><g/></g></g></g><g transform="matrix(1.0, 0.0, 0.0, 1.0, 2.0, 0.0)"><g style="fill: #0000ff;stroke: black;stroke-width: 1.5;fill-opacity: 0.46;" transform="matrix(1.0, 0.0, 0.0, 1.0, 0.0, 0.0)"><rect height="1" style="vector-effect: non-scaling-stroke;" width="1" x="-0.5" y="-0.5"/></g></g></g></g></g><g transform="matrix(1.0, 0.0, 0.0, 1.0, 0.0, 1.5)"><g transform="matrix(0.0, -1.0, 1.0, 0.0, 0.0, 0.0)"><g/></g></g></g><g transform="matrix(1.0, 0.0, 0.0, 1.0, 0.0, 2.0)"><g><g><g><g><g style="fill: #0000ff;stroke: black;stroke-width: 1.5;fill-opacity: 0.46;" transform="matrix(1.0, 0.0, 0.0, 1.0, 0.0, 0.0)"><rect height="1" style="vector-effect: non-scaling-stroke;" width="1" x="-0.5" y="-0.5"/></g><g transform="matrix(1.0, 0.0, 0.0, 1.0, 0.5, 0.0)"><g transform="matrix(1.0, -0.0, 0.0, 1.0, 0.0, 0.0)"><g/></g></g></g><g transform="matrix(1.0, 0.0, 0.0, 1.0, 1.0, 0.0)"><g style="fill: #0000ff;stroke: black;stroke-width: 1.5;fill-opacity: 0.46;" transform="matrix(1.0, 0.0, 0.0, 1.0, 0.0, 0.0)"><rect height="1" style="vector-effect: non-scaling-stroke;" width="1" x="-0.5" y="-0.5"/></g></g></g><g transform="matrix(1.0, 0.0, 0.0, 1.0, 1.5, 0.0)"><g transform="matrix(1.0, -0.0, 0.0, 1.0, 0.0, 0.0)"><g/></g></g></g><g transform="matrix(1.0, 0.0, 0.0, 1.0, 2.0, 0.0)"><g style="fill: #0000ff;stroke: black;stroke-width: 1.5;fill-opacity: 0.46;" transform="matrix(1.0, 0.0, 0.0, 1.0, 0.0, 0.0)"><rect height="1" style="vector-effect: non-scaling-stroke;" width="1" x="-0.5" y="-0.5"/></g></g></g></g></g><g transform="matrix(1.0, 0.0, 0.0, 1.0, 0.0, 2.5)"><g transform="matrix(0.0, -1.0, 1.0, 0.0, 0.0, 0.0)"><g/></g></g></g><g transform="matrix(1.0, 0.0, 0.0, 1.0, 0.0, 3.0)"><g><g><g><g><g style="fill: #0000ff;stroke: black;stroke-width: 1.5;fill-opacity: 0.46;" transform="matrix(1.0, 0.0, 0.0, 1.0, 0.0, 0.0)"><rect height="1" style="vector-effect: non-scaling-stroke;" width="1" x="-0.5" y="-0.5"/></g><g transform="matrix(1.0, 0.0, 0.0, 1.0, 0.5, 0.0)"><g transform="matrix(1.0, -0.0, 0.0, 1.0, 0.0, 0.0)"><g/></g></g></g><g transform="matrix(1.0, 0.0, 0.0, 1.0, 1.0, 0.0)"><g style="fill: #0000ff;stroke: black;stroke-width: 1.5;fill-opacity: 0.46;" transform="matrix(1.0, 0.0, 0.0, 1.0, 0.0, 0.0)"><rect height="1" style="vector-effect: non-scaling-stroke;" width="1" x="-0.5" y="-0.5"/></g></g></g><g transform="matrix(1.0, 0.0, 0.0, 1.0, 1.5, 0.0)"><g transform="matrix(1.0, -0.0, 0.0, 1.0, 0.0, 0.0)"><g/></g></g></g><g transform="matrix(1.0, 0.0, 0.0, 1.0, 2.0, 0.0)"><g style="fill: #0000ff;stroke: black;stroke-width: 1.5;fill-opacity: 0.46;" transform="matrix(1.0, 0.0, 0.0, 1.0, 0.0, 0.0)"><rect height="1" style="vector-effect: non-scaling-stroke;" width="1" x="-0.5" y="-0.5"/></g></g></g></g></g></g><g/></g></g></g><g transform="matrix(1.0, 0.0, 0.0, 1.0, 4.50005, 0.0)"><g style="stroke: black;stroke-width: 1.5;" transform="matrix(1.0, 0.0, 0.0, 1.0, 0.0, 0.0)"><g/></g></g></g><g transform="matrix(1.0, 0.0, 0.0, 1.0, 6.50005, 0.0)"><g><g transform="matrix(1.0, 0.0, 0.0, 1.0, -1.0, -1.5)"><g><g><g><g><g><g><g><g><g><g><g style="fill: #0000ff;stroke: black;stroke-width: 1.5;fill-opacity: 0.7;" transform="matrix(1.0, 0.0, 0.0, 1.0, 0.0, 0.0)"><rect height="1" style="vector-effect: non-scaling-stroke;" width="1" x="-0.5" y="-0.5"/></g><g transform="matrix(1.0, 0.0, 0.0, 1.0, 0.5, 0.0)"><g transform="matrix(1.0, -0.0, 0.0, 1.0, 0.0, 0.0)"><g/></g></g></g><g transform="matrix(1.0, 0.0, 0.0, 1.0, 1.0, 0.0)"><g style="fill: #0000ff;stroke: black;stroke-width: 1.5;fill-opacity: 0.7;" transform="matrix(1.0, 0.0, 0.0, 1.0, 0.0, 0.0)"><rect height="1" style="vector-effect: non-scaling-stroke;" width="1" x="-0.5" y="-0.5"/></g></g></g><g transform="matrix(1.0, 0.0, 0.0, 1.0, 1.5, 0.0)"><g transform="matrix(1.0, -0.0, 0.0, 1.0, 0.0, 0.0)"><g/></g></g></g><g transform="matrix(1.0, 0.0, 0.0, 1.0, 2.0, 0.0)"><g style="fill: #0000ff;stroke: black;stroke-width: 1.5;fill-opacity: 0.7;" transform="matrix(1.0, 0.0, 0.0, 1.0, 0.0, 0.0)"><rect height="1" style="vector-effect: non-scaling-stroke;" width="1" x="-0.5" y="-0.5"/></g></g></g><g transform="matrix(1.0, 0.0, 0.0, 1.0, 0.0, 0.5)"><g transform="matrix(0.0, -1.0, 1.0, 0.0, 0.0, 0.0)"><g/></g></g></g><g transform="matrix(1.0, 0.0, 0.0, 1.0, 0.0, 1.0)"><g><g><g><g><g style="fill: #0000ff;stroke: black;stroke-width: 1.5;fill-opacity: 0.7;" transform="matrix(1.0, 0.0, 0.0, 1.0, 0.0, 0.0)"><rect height="1" style="vector-effect: non-scaling-stroke;" width="1" x="-0.5" y="-0.5"/></g><g transform="matrix(1.0, 0.0, 0.0, 1.0, 0.5, 0.0)"><g transform="matrix(1.0, -0.0, 0.0, 1.0, 0.0, 0.0)"><g/></g></g></g><g transform="matrix(1.0, 0.0, 0.0, 1.0, 1.0, 0.0)"><g style="fill: #0000ff;stroke: black;stroke-width: 1.5;fill-opacity: 0.7;" transform="matrix(1.0, 0.0, 0.0, 1.0, 0.0, 0.0)"><rect height="1" style="vector-effect: non-scaling-stroke;" width="1" x="-0.5" y="-0.5"/></g></g></g><g transform="matrix(1.0, 0.0, 0.0, 1.0, 1.5, 0.0)"><g transform="matrix(1.0, -0.0, 0.0, 1.0, 0.0, 0.0)"><g/></g></g></g><g transform="matrix(1.0, 0.0, 0.0, 1.0, 2.0, 0.0)"><g style="fill: #0000ff;stroke: black;stroke-width: 1.5;fill-opacity: 0.7;" transform="matrix(1.0, 0.0, 0.0, 1.0, 0.0, 0.0)"><rect height="1" style="vector-effect: non-scaling-stroke;" width="1" x="-0.5" y="-0.5"/></g></g></g></g></g><g transform="matrix(1.0, 0.0, 0.0, 1.0, 0.0, 1.5)"><g transform="matrix(0.0, -1.0, 1.0, 0.0, 0.0, 0.0)"><g/></g></g></g><g transform="matrix(1.0, 0.0, 0.0, 1.0, 0.0, 2.0)"><g><g><g><g><g style="fill: #0000ff;stroke: black;stroke-width: 1.5;fill-opacity: 0.7;" transform="matrix(1.0, 0.0, 0.0, 1.0, 0.0, 0.0)"><rect height="1" style="vector-effect: non-scaling-stroke;" width="1" x="-0.5" y="-0.5"/></g><g transform="matrix(1.0, 0.0, 0.0, 1.0, 0.5, 0.0)"><g transform="matrix(1.0, -0.0, 0.0, 1.0, 0.0, 0.0)"><g/></g></g></g><g transform="matrix(1.0, 0.0, 0.0, 1.0, 1.0, 0.0)"><g style="fill: #0000ff;stroke: black;stroke-width: 1.5;fill-opacity: 0.7;" transform="matrix(1.0, 0.0, 0.0, 1.0, 0.0, 0.0)"><rect height="1" style="vector-effect: non-scaling-stroke;" width="1" x="-0.5" y="-0.5"/></g></g></g><g transform="matrix(1.0, 0.0, 0.0, 1.0, 1.5, 0.0)"><g transform="matrix(1.0, -0.0, 0.0, 1.0, 0.0, 0.0)"><g/></g></g></g><g transform="matrix(1.0, 0.0, 0.0, 1.0, 2.0, 0.0)"><g style="fill: #0000ff;stroke: black;stroke-width: 1.5;fill-opacity: 0.7;" transform="matrix(1.0, 0.0, 0.0, 1.0, 0.0, 0.0)"><rect height="1" style="vector-effect: non-scaling-stroke;" width="1" x="-0.5" y="-0.5"/></g></g></g></g></g><g transform="matrix(1.0, 0.0, 0.0, 1.0, 0.0, 2.5)"><g transform="matrix(0.0, -1.0, 1.0, 0.0, 0.0, 0.0)"><g/></g></g></g><g transform="matrix(1.0, 0.0, 0.0, 1.0, 0.0, 3.0)"><g><g><g><g><g style="fill: #0000ff;stroke: black;stroke-width: 1.5;fill-opacity: 0.7;" transform="matrix(1.0, 0.0, 0.0, 1.0, 0.0, 0.0)"><rect height="1" style="vector-effect: non-scaling-stroke;" width="1" x="-0.5" y="-0.5"/></g><g transform="matrix(1.0, 0.0, 0.0, 1.0, 0.5, 0.0)"><g transform="matrix(1.0, -0.0, 0.0, 1.0, 0.0, 0.0)"><g/></g></g></g><g transform="matrix(1.0, 0.0, 0.0, 1.0, 1.0, 0.0)"><g style="fill: #0000ff;stroke: black;stroke-width: 1.5;fill-opacity: 0.7;" transform="matrix(1.0, 0.0, 0.0, 1.0, 0.0, 0.0)"><rect height="1" style="vector-effect: non-scaling-stroke;" width="1" x="-0.5" y="-0.5"/></g></g></g><g transform="matrix(1.0, 0.0, 0.0, 1.0, 1.5, 0.0)"><g transform="matrix(1.0, -0.0, 0.0, 1.0, 0.0, 0.0)"><g/></g></g></g><g transform="matrix(1.0, 0.0, 0.0, 1.0, 2.0, 0.0)"><g style="fill: #0000ff;stroke: black;stroke-width: 1.5;fill-opacity: 0.7;" transform="matrix(1.0, 0.0, 0.0, 1.0, 0.0, 0.0)"><rect height="1" style="vector-effect: non-scaling-stroke;" width="1" x="-0.5" y="-0.5"/></g></g></g></g></g></g><g/></g></g></g><g transform="matrix(1.0, 0.0, 0.0, 1.0, 8.50005, 0.0)"><g style="stroke: black;stroke-width: 1.5;" transform="matrix(1.0, 0.0, 0.0, 1.0, 0.0, 0.0)"><g/></g></g></g><g transform="matrix(1.0, 0.0, 0.0, 1.0, 11.00005, 0.0)"><g><g transform="matrix(1.0, 0.0, 0.0, 1.0, -1.5, -2.0)"><g><g><g><g><g><g><g><g><g><g><g><g><g><g><g style="stroke: black;stroke-width: 1.5;" transform="matrix(1.0, 0.0, 0.0, 1.0, 0.0, 0.0)"><rect height="1" style="vector-effect: non-scaling-stroke;" width="1" x="-0.5" y="-0.5"/></g><g transform="matrix(1.0, 0.0, 0.0, 1.0, 0.5, 0.0)"><g transform="matrix(1.0, -0.0, 0.0, 1.0, 0.0, 0.0)"><g/></g></g></g><g transform="matrix(1.0, 0.0, 0.0, 1.0, 1.0, 0.0)"><g style="stroke: black;stroke-width: 1.5;" transform="matrix(1.0, 0.0, 0.0, 1.0, 0.0, 0.0)"><rect height="1" style="vector-effect: non-scaling-stroke;" width="1" x="-0.5" y="-0.5"/></g></g></g><g transform="matrix(1.0, 0.0, 0.0, 1.0, 1.5, 0.0)"><g transform="matrix(1.0, -0.0, 0.0, 1.0, 0.0, 0.0)"><g/></g></g></g><g transform="matrix(1.0, 0.0, 0.0, 1.0, 2.0, 0.0)"><g style="stroke: black;stroke-width: 1.5;" transform="matrix(1.0, 0.0, 0.0, 1.0, 0.0, 0.0)"><rect height="1" style="vector-effect: non-scaling-stroke;" width="1" x="-0.5" y="-0.5"/></g></g></g><g transform="matrix(1.0, 0.0, 0.0, 1.0, 2.5, 0.0)"><g transform="matrix(1.0, -0.0, 0.0, 1.0, 0.0, 0.0)"><g/></g></g></g><g transform="matrix(1.0, 0.0, 0.0, 1.0, 3.0, 0.0)"><g style="stroke: black;stroke-width: 1.5;" transform="matrix(1.0, 0.0, 0.0, 1.0, 0.0, 0.0)"><rect height="1" style="vector-effect: non-scaling-stroke;" width="1" x="-0.5" y="-0.5"/></g></g></g><g transform="matrix(1.0, 0.0, 0.0, 1.0, 0.0, 0.5)"><g transform="matrix(0.0, -1.0, 1.0, 0.0, 0.0, 0.0)"><g/></g></g></g><g transform="matrix(1.0, 0.0, 0.0, 1.0, 0.0, 1.0)"><g><g><g><g><g><g><g style="stroke: black;stroke-width: 1.5;" transform="matrix(1.0, 0.0, 0.0, 1.0, 0.0, 0.0)"><rect height="1" style="vector-effect: non-scaling-stroke;" width="1" x="-0.5" y="-0.5"/></g><g transform="matrix(1.0, 0.0, 0.0, 1.0, 0.5, 0.0)"><g transform="matrix(1.0, -0.0, 0.0, 1.0, 0.0, 0.0)"><g/></g></g></g><g transform="matrix(1.0, 0.0, 0.0, 1.0, 1.0, 0.0)"><g style="stroke: black;stroke-width: 1.5;" transform="matrix(1.0, 0.0, 0.0, 1.0, 0.0, 0.0)"><rect height="1" style="vector-effect: non-scaling-stroke;" width="1" x="-0.5" y="-0.5"/></g></g></g><g transform="matrix(1.0, 0.0, 0.0, 1.0, 1.5, 0.0)"><g transform="matrix(1.0, -0.0, 0.0, 1.0, 0.0, 0.0)"><g/></g></g></g><g transform="matrix(1.0, 0.0, 0.0, 1.0, 2.0, 0.0)"><g style="stroke: black;stroke-width: 1.5;" transform="matrix(1.0, 0.0, 0.0, 1.0, 0.0, 0.0)"><rect height="1" style="vector-effect: non-scaling-stroke;" width="1" x="-0.5" y="-0.5"/></g></g></g><g transform="matrix(1.0, 0.0, 0.0, 1.0, 2.5, 0.0)"><g transform="matrix(1.0, -0.0, 0.0, 1.0, 0.0, 0.0)"><g/></g></g></g><g transform="matrix(1.0, 0.0, 0.0, 1.0, 3.0, 0.0)"><g style="stroke: black;stroke-width: 1.5;" transform="matrix(1.0, 0.0, 0.0, 1.0, 0.0, 0.0)"><rect height="1" style="vector-effect: non-scaling-stroke;" width="1" x="-0.5" y="-0.5"/></g></g></g></g></g><g transform="matrix(1.0, 0.0, 0.0, 1.0, 0.0, 1.5)"><g transform="matrix(0.0, -1.0, 1.0, 0.0, 0.0, 0.0)"><g/></g></g></g><g transform="matrix(1.0, 0.0, 0.0, 1.0, 0.0, 2.0)"><g><g><g><g><g><g><g style="stroke: black;stroke-width: 1.5;" transform="matrix(1.0, 0.0, 0.0, 1.0, 0.0, 0.0)"><rect height="1" style="vector-effect: non-scaling-stroke;" width="1" x="-0.5" y="-0.5"/></g><g transform="matrix(1.0, 0.0, 0.0, 1.0, 0.5, 0.0)"><g transform="matrix(1.0, -0.0, 0.0, 1.0, 0.0, 0.0)"><g/></g></g></g><g transform="matrix(1.0, 0.0, 0.0, 1.0, 1.0, 0.0)"><g style="stroke: black;stroke-width: 1.5;" transform="matrix(1.0, 0.0, 0.0, 1.0, 0.0, 0.0)"><rect height="1" style="vector-effect: non-scaling-stroke;" width="1" x="-0.5" y="-0.5"/></g></g></g><g transform="matrix(1.0, 0.0, 0.0, 1.0, 1.5, 0.0)"><g transform="matrix(1.0, -0.0, 0.0, 1.0, 0.0, 0.0)"><g/></g></g></g><g transform="matrix(1.0, 0.0, 0.0, 1.0, 2.0, 0.0)"><g style="stroke: black;stroke-width: 1.5;" transform="matrix(1.0, 0.0, 0.0, 1.0, 0.0, 0.0)"><rect height="1" style="vector-effect: non-scaling-stroke;" width="1" x="-0.5" y="-0.5"/></g></g></g><g transform="matrix(1.0, 0.0, 0.0, 1.0, 2.5, 0.0)"><g transform="matrix(1.0, -0.0, 0.0, 1.0, 0.0, 0.0)"><g/></g></g></g><g transform="matrix(1.0, 0.0, 0.0, 1.0, 3.0, 0.0)"><g style="stroke: black;stroke-width: 1.5;" transform="matrix(1.0, 0.0, 0.0, 1.0, 0.0, 0.0)"><rect height="1" style="vector-effect: non-scaling-stroke;" width="1" x="-0.5" y="-0.5"/></g></g></g></g></g><g transform="matrix(1.0, 0.0, 0.0, 1.0, 0.0, 2.5)"><g transform="matrix(0.0, -1.0, 1.0, 0.0, 0.0, 0.0)"><g/></g></g></g><g transform="matrix(1.0, 0.0, 0.0, 1.0, 0.0, 3.0)"><g><g><g><g><g><g><g style="stroke: black;stroke-width: 1.5;" transform="matrix(1.0, 0.0, 0.0, 1.0, 0.0, 0.0)"><rect height="1" style="vector-effect: non-scaling-stroke;" width="1" x="-0.5" y="-0.5"/></g><g transform="matrix(1.0, 0.0, 0.0, 1.0, 0.5, 0.0)"><g transform="matrix(1.0, -0.0, 0.0, 1.0, 0.0, 0.0)"><g/></g></g></g><g transform="matrix(1.0, 0.0, 0.0, 1.0, 1.0, 0.0)"><g style="stroke: black;stroke-width: 1.5;" transform="matrix(1.0, 0.0, 0.0, 1.0, 0.0, 0.0)"><rect height="1" style="vector-effect: non-scaling-stroke;" width="1" x="-0.5" y="-0.5"/></g></g></g><g transform="matrix(1.0, 0.0, 0.0, 1.0, 1.5, 0.0)"><g transform="matrix(1.0, -0.0, 0.0, 1.0, 0.0, 0.0)"><g/></g></g></g><g transform="matrix(1.0, 0.0, 0.0, 1.0, 2.0, 0.0)"><g style="stroke: black;stroke-width: 1.5;" transform="matrix(1.0, 0.0, 0.0, 1.0, 0.0, 0.0)"><rect height="1" style="vector-effect: non-scaling-stroke;" width="1" x="-0.5" y="-0.5"/></g></g></g><g transform="matrix(1.0, 0.0, 0.0, 1.0, 2.5, 0.0)"><g transform="matrix(1.0, -0.0, 0.0, 1.0, 0.0, 0.0)"><g/></g></g></g><g transform="matrix(1.0, 0.0, 0.0, 1.0, 3.0, 0.0)"><g style="stroke: black;stroke-width: 1.5;" transform="matrix(1.0, 0.0, 0.0, 1.0, 0.0, 0.0)"><rect height="1" style="vector-effect: non-scaling-stroke;" width="1" x="-0.5" y="-0.5"/></g></g></g></g></g><g transform="matrix(1.0, 0.0, 0.0, 1.0, 0.0, 3.5)"><g transform="matrix(0.0, -1.0, 1.0, 0.0, 0.0, 0.0)"><g/></g></g></g><g transform="matrix(1.0, 0.0, 0.0, 1.0, 0.0, 4.0)"><g><g><g><g><g><g><g style="stroke: black;stroke-width: 1.5;" transform="matrix(1.0, 0.0, 0.0, 1.0, 0.0, 0.0)"><rect height="1" style="vector-effect: non-scaling-stroke;" width="1" x="-0.5" y="-0.5"/></g><g transform="matrix(1.0, 0.0, 0.0, 1.0, 0.5, 0.0)"><g transform="matrix(1.0, -0.0, 0.0, 1.0, 0.0, 0.0)"><g/></g></g></g><g transform="matrix(1.0, 0.0, 0.0, 1.0, 1.0, 0.0)"><g style="stroke: black;stroke-width: 1.5;" transform="matrix(1.0, 0.0, 0.0, 1.0, 0.0, 0.0)"><rect height="1" style="vector-effect: non-scaling-stroke;" width="1" x="-0.5" y="-0.5"/></g></g></g><g transform="matrix(1.0, 0.0, 0.0, 1.0, 1.5, 0.0)"><g transform="matrix(1.0, -0.0, 0.0, 1.0, 0.0, 0.0)"><g/></g></g></g><g transform="matrix(1.0, 0.0, 0.0, 1.0, 2.0, 0.0)"><g style="stroke: black;stroke-width: 1.5;" transform="matrix(1.0, 0.0, 0.0, 1.0, 0.0, 0.0)"><rect height="1" style="vector-effect: non-scaling-stroke;" width="1" x="-0.5" y="-0.5"/></g></g></g><g transform="matrix(1.0, 0.0, 0.0, 1.0, 2.5, 0.0)"><g transform="matrix(1.0, -0.0, 0.0, 1.0, 0.0, 0.0)"><g/></g></g></g><g transform="matrix(1.0, 0.0, 0.0, 1.0, 3.0, 0.0)"><g style="stroke: black;stroke-width: 1.5;" transform="matrix(1.0, 0.0, 0.0, 1.0, 0.0, 0.0)"><rect height="1" style="vector-effect: non-scaling-stroke;" width="1" x="-0.5" y="-0.5"/></g></g></g></g></g></g><g/></g></g></g></g></g></g></g></g><g/></g></g></g></g><g/></g></g></g></g></svg>